<?xml version="1.0" standalone="no"?><!DOCTYPE svg PUBLIC "-//W3C//DTD SVG 1.1//EN" "http://www.w3.org/Graphics/SVG/1.1/DTD/svg11.dtd"><svg t="1767943397717" class="icon" viewBox="0 0 1024 1024" version="1.1" xmlns="http://www.w3.org/2000/svg" p-id="6313" xmlns:xlink="http://www.w3.org/1999/xlink" width="200" height="200"><path d="M725.333333 85.333333v85.333334h128a42.666667 42.666667 0 0 1 42.666667 42.666666v682.666667a42.666667 42.666667 0 0 1-42.666667 42.666667H170.666667a42.666667 42.666667 0 0 1-42.666667-42.666667V213.333333a42.666667 42.666667 0 0 1 42.666667-42.666666h128V85.333333h426.666666zM298.666667 256H213.333333v597.333333h597.333334V256h-85.333334v85.333333H298.666667V256z m256 213.333333v85.333334h85.333333v85.333333h-85.376L554.666667 725.333333h-85.333334l-0.042666-85.333333H384v-85.333333h85.333333v-85.333334h85.333334z m85.333333-298.666666H384v85.333333h256V170.666667z" fill="#ffffff" p-id="6314" data-spm-anchor-id="a313x.search_index.0.i6.49b53a81k9DwJ7" class="selected"></path></svg>